name processed_emg_signals												
nRows=84												
nColumns=7												
 												
endheader												
time	RGLTMED	RRF	RADDLONG	RST	RTA	RGM						
0.442	0.04072885	0.037487234	0.050199523	0.440329558	0.414828883	0.065053224						
0.443	0.040528986	0.037430778	0.050329983	0.453324989	0.414476833	0.065144659						
0.444	0.04032706	0.037379812	0.050476056	0.466359955	0.414195039	0.065241349						
0.445	0.040123439	0.037334706	0.050637737	0.479424683	0.413984882	0.065343249						
0.446	0.039918505	0.037295842	0.050814995	0.492509249	0.413847674	0.065450305						
0.447	0.039712656	0.037263608	0.051007776	0.505603592	0.413784651	0.065562454						
0.448	0.039506306	0.037238403	0.051216005	0.518697522	0.413796968	0.065679628						
0.449	0.039299883	0.037220636	0.051439579	0.531780735	0.413885705	0.065801751						
0.45	0.039093833	0.037210722	0.051678375	0.544842821	0.414051855	0.065928736						
0.451	0.038888616	0.037209085	0.051932244	0.557873281	0.414296331	0.066060493						
0.452	0.038684705	0.037216159	0.052201015	0.570861532	0.414619957	0.066196922						
0.453	0.038482591	0.037232383	0.052484492	0.583796929	0.415023473	0.066337914						
0.454	0.038282779	0.037258206	0.052782458	0.59666877	0.415507529	0.066483356						
0.455	0.038085787	0.037294081	0.053094671	0.609466313	0.416072684	0.066633123						
0.456	0.037892148	0.037340469	0.053420867	0.622178786	0.416719411	0.066787087						
0.457	0.03770241	0.037397839	0.05376076	0.634795405	0.41744809	0.066945111						
0.458	0.037517134	0.037466663	0.054114042	0.647305382	0.41825901	0.067107048						
0.459	0.037336894	0.03754742	0.054480382	0.659697941	0.419152369	0.06727275						
0.46	0.037162278	0.037640592	0.054859431	0.671962333	0.420128275	0.067442056						
0.461	0.036993885	0.037746667	0.055250815	0.684087846	0.421186744	0.067614802						
0.462	0.036832329	0.037866135	0.055654142	0.69606382	0.422327703	0.067790818						
0.463	0.036678233	0.03799949	0.056069002	0.707879662	0.423550988	0.067969926						
0.464	0.036532235	0.038147229	0.056494962	0.719524859	0.424856348	0.068151942						
0.465	0.03639498	0.038309849	0.056931575	0.730988988	0.426243442	0.068336678						
0.466	0.036267128	0.038487849	0.057378372	0.742261736	0.427711844	0.068523941						
0.467	0.036149346	0.038681729	0.057834869	0.753332907	0.429261041	0.068713531						
0.468	0.036042313	0.038891989	0.058300566	0.76419244	0.430890438	0.068905244						
0.469	0.035946715	0.039119126	0.058774947	0.77483042	0.432599354	0.069098874						
0.47	0.035863249	0.039363636	0.059257479	0.785237092	0.43438703	0.069294209						
0.471	0.035792618	0.039626014	0.059747618	0.795402875	0.436252628	0.069491034						
0.472	0.035735535	0.039906751	0.060244805	0.805318372	0.438195232	0.069689133						
0.473	0.035692718	0.040206332	0.060748469	0.814974386	0.440213852	0.069888284						
0.474	0.035664892	0.04052524	0.061258027	0.824361933	0.442307424	0.070088266						
0.475	0.035652788	0.04086395	0.061772885	0.833472252	0.444474814	0.070288855						
0.476	0.035657143	0.041222931	0.062292441	0.842296821	0.446714822	0.070489827						
0.477	0.035678697	0.041602646	0.062816082	0.850827366	0.449026181	0.070690958						
0.478	0.035718194	0.042003548	0.063343188	0.859055876	0.45140756	0.070892021						
0.479	0.035776382	0.042426082	0.063873133	0.866974615	0.45385757	0.071092793						
0.48	0.03585401	0.04287068	0.064405282	0.874576131	0.456374763	0.071293051						
0.481	0.035951831	0.043337768	0.064939	0.881853272	0.458957637	0.071492573						
0.482	0.036070597	0.043827757	0.065473642	0.888799196	0.461604637	0.071691139						
0.483	0.036211059	0.044341045	0.066008565	0.895407378	0.464314159	0.071888534						
0.484	0.03637397	0.044878018	0.066543122	0.90167163	0.467084551	0.072084543						
0.485	0.03656008	0.045439048	0.067076663	0.907586104	0.469914117	0.072278959						
0.486	0.036770136	0.046024489	0.067608543	0.913145304	0.472801119	0.072471576						
0.487	0.037004883	0.046634681	0.068138114	0.9183441	0.47574378	0.072662195						
0.488	0.037265061	0.047269947	0.068664732	0.923177732	0.478740285	0.072850621						
0.489	0.037551407	0.047930592	0.069187756	0.927641826	0.481788784	0.073036668						
0.49	0.037864648	0.048616902	0.069706549	0.931732395	0.484887393	0.073220154						
0.491	0.038205508	0.049329143	0.07022048	0.935445855	0.488034199	0.073400907						
0.492	0.038574701	0.050067562	0.070728925	0.938779028	0.491227257	0.07357876						
0.493	0.038972933	0.050832383	0.071231265	0.941729154	0.494464596	0.073753557						
0.494	0.0394009	0.051623812	0.071726892	0.944293891	0.497744217	0.073925151						
0.495	0.039859288	0.052442028	0.072215207	0.946471331	0.501064098	0.074093403						
0.496	0.040348769	0.053287189	0.072695623	0.948259997	0.504422189	0.074258186						
0.497	0.040870005	0.054159429	0.073167561	0.949658854	0.507816422	0.074419383						
0.498	0.041423641	0.055058857	0.073630459	0.950667312	0.511244704	0.074576887						
0.499	0.042010309	0.055985557	0.074083765	0.951285229	0.51470492	0.074730606						
0.5	0.042630623	0.056939585	0.074526945	0.951512917	0.518194937	0.074880457						
0.501	0.043285183	0.057920974	0.074959478	0.951351142	0.521712599	0.075026371						
0.502	0.043974567	0.058929727	0.075380861	0.950801128	0.52525573	0.075168293						
0.503	0.044699335	0.059965821	0.075790606	0.949864556	0.528822136	0.075306181						
0.504	0.045460026	0.061029203	0.076188247	0.948543566	0.532409601	0.075440007						
0.505	0.046257157	0.062119792	0.076573334	0.946840757	0.536015889	0.075569758						
0.506	0.047091223	0.06323748	0.076945438	0.944759186	0.539638744	0.075695435						
0.507	0.047962693	0.064382126	0.077304149	0.942302362	0.54327589	0.075817056						
0.508	0.048872012	0.06555356	0.077649081	0.939474249	0.546925027	0.075934653						
0.509	0.049819598	0.066751584	0.077979867	0.93627926	0.550583836	0.076048275						
0.51	0.05080584	0.067975967	0.078296165	0.932722251	0.554249972	0.076157988						
0.511	0.051831101	0.069226447	0.078597652	0.928808518	0.557921069	0.076263872						
0.512	0.05289571	0.070502731	0.078884032	0.924543789	0.561594736	0.076366028						
0.513	0.053999968	0.071804497	0.079155033	0.91993422	0.565268556	0.076464571						
0.514	0.055144141	0.073131388	0.079410404	0.914986384	0.568940086	0.076559634						
0.515	0.056328463	0.074483018	0.079649922	0.909707266	0.572606857	0.076651368						
0.516	0.057553131	0.075858967	0.079873387	0.904104251	0.57626637	0.076739942						
0.517	0.05881831	0.077258785	0.080080624	0.898185114	0.5799161	0.076825542						
0.518	0.060124123	0.07868199	0.080271485	0.891958015	0.583553493	0.076908371						
0.519	0.061470657	0.080128066	0.080445844	0.885431479	0.587175961	0.076988652						
0.52	0.062857961	0.081596469	0.080603604	0.878614391	0.590780892	0.077066626						
0.521	0.064286041	0.083086621	0.080744692	0.87151598	0.594365638	0.077142548						
0.522	0.065754862	0.084597912	0.080869059	0.864145806	0.597927525	0.077216696						
0.523	0.067264347	0.086129703	0.080976682	0.856513749	0.601463845	0.077289362						
0.524	0.068814376	0.087681322	0.081067565	0.848629988	0.604971861	0.077360858						
0.525	0.070404784	0.089252068	0.081141734	0.840504992	0.608448807	0.077431511						
